<?xml version="1.0" encoding="UTF-8" standalone="no"?>
<!DOCTYPE svg PUBLIC "-//W3C//DTD SVG 1.1//EN" "http://www.w3.org/Graphics/SVG/1.1/DTD/svg11.dtd">
<svg width="100%" height="100%" viewBox="0 0 800 800" version="1.1" xmlns="http://www.w3.org/2000/svg" xmlns:xlink="http://www.w3.org/1999/xlink" xml:space="preserve" xmlns:serif="http://www.serif.com/" style="fill-rule:evenodd;clip-rule:evenodd;stroke-linecap:round;stroke-linejoin:round;stroke-miterlimit:1.5;">
    <g transform="matrix(-0.89375,0,0,-0.89375,757.5,757.5)">
        <g transform="matrix(0.965035,0,0,0.965035,13.986,13.986)">
            <path d="M666.667,0L133.333,0C59.8,0 0,59.8 0,133.333L0,666.667C0,740.2 59.8,800 133.333,800L666.667,800C740.2,800 800,740.2 800,666.667L800,133.333C800,59.8 740.2,0 666.667,0ZM733.333,666.667C733.333,703.467 703.467,733.333 666.667,733.333L133.333,733.333C96.567,733.333 66.667,703.467 66.667,666.667L66.667,133.333C66.667,96.567 96.567,66.667 133.333,66.667L666.667,66.667C703.467,66.667 733.333,96.567 733.333,133.333L733.333,666.667Z" style="fill-rule:nonzero;"/>
        </g>
        <g transform="matrix(0.965035,0,0,0.965035,-48.6713,-84.4755)">
            <path d="M616.667,366.667L183.333,366.667C164.933,366.667 150,381.6 150,400C150,418.4 164.933,433.333 183.333,433.333L616.667,433.333C635.067,433.333 650,418.4 650,400C650,381.6 635.067,366.667 616.667,366.667Z" style="fill-rule:nonzero;"/>
        </g>
        <g transform="matrix(0.965035,0,0,0.965035,76.6434,-84.4755)">
            <path d="M616.667,366.667L183.333,366.667C164.933,366.667 150,381.6 150,400C150,418.4 164.933,433.333 183.333,433.333L616.667,433.333C635.067,433.333 650,418.4 650,400C650,381.6 635.067,366.667 616.667,366.667Z" style="fill-rule:nonzero;"/>
        </g>
        <g transform="matrix(0.965035,0,0,0.965035,-48.6713,-213.147)">
            <path d="M616.667,366.667L183.333,366.667C164.933,366.667 150,381.6 150,400C150,418.4 164.933,433.333 183.333,433.333L616.667,433.333C635.067,433.333 650,418.4 650,400C650,381.6 635.067,366.667 616.667,366.667Z" style="fill-rule:nonzero;"/>
        </g>
        <g transform="matrix(0.965035,0,0,0.965035,76.6434,-213.147)">
            <path d="M616.667,366.667L183.333,366.667C164.933,366.667 150,381.6 150,400C150,418.4 164.933,433.333 183.333,433.333L616.667,433.333C635.067,433.333 650,418.4 650,400C650,381.6 635.067,366.667 616.667,366.667Z" style="fill-rule:nonzero;"/>
        </g>
        <g transform="matrix(-1.11888,0,0,-1.15385,543.636,880.49)">
            <path d="M400,394C400,378.546 387.062,366 371.125,366L179.875,366C163.938,366 151,378.546 151,394C151,409.454 163.938,422 179.875,422L371.125,422C387.062,422 400,409.454 400,394Z" style="stroke:white;stroke-width:0.98px;"/>
        </g>
        <g transform="matrix(0.559441,0,0,0.461938,267.599,380.819)">
            <path d="M733.333,400.007C675.103,519.213 529.25,633.333 399.993,633.333C270.734,633.333 124.882,519.213 66.667,399.993" style="fill:none;stroke:black;stroke-width:66.67px;stroke-miterlimit:4;"/>
        </g>
        <g transform="matrix(0.559441,0,0,0.461938,267.599,380.819)">
            <path d="M733.333,400.007C675.103,280.799 529.273,166.667 400.017,166.667C270.757,166.667 124.882,280.771 66.667,399.993" style="fill:none;stroke:black;stroke-width:66.67px;stroke-miterlimit:4;"/>
        </g>
        <g transform="matrix(0.559441,0,0,0.461938,267.599,380.819)">
            <path d="M500,400C500,455.23 455.23,500 400,500C344.77,500 300,455.23 300,400C300,344.77 344.77,300 400,300C455.23,300 500,344.77 500,400Z" style="fill:none;fill-rule:nonzero;stroke:black;stroke-width:66.67px;stroke-miterlimit:4;"/>
        </g>
    </g>
</svg>
